<svg width="128" height="30" viewBox="0 0 128 30" fill="none" xmlns="http://www.w3.org/2000/svg">
<path d="M128 27.2425C128 27.7489 127.818 28.1837 127.454 28.547C127.091 28.9103 126.656 29.0926 126.15 29.0926C125.644 29.0926 125.185 28.9103 124.822 28.547C124.458 28.1837 124.276 27.7489 124.276 27.2425C124.276 26.7362 124.457 26.2789 124.822 25.9142C125.186 25.5495 125.628 25.3686 126.15 25.3686C126.672 25.3686 127.09 25.5509 127.454 25.9142C127.818 26.2775 128 26.7207 128 27.2425Z" fill="white"/>
<path d="M31.4842 28.6564C30.7029 28.843 29.9216 28.9369 29.1403 28.9369C28.2903 28.9369 27.5273 28.7588 26.8484 28.4025C26.1681 28.0462 25.5832 27.5792 25.0908 27.0013C24.5985 26.4248 24.224 25.7613 23.9701 25.0137C23.7148 24.2675 23.5886 23.503 23.5886 22.7217V16.3536C23.5886 15.5724 23.3754 14.9019 22.9518 14.3408C22.5268 13.7798 21.89 13.5006 21.0413 13.5006C20.1927 13.5006 19.5644 13.7475 19.0552 14.2398C18.546 14.7322 18.1547 15.3521 17.884 16.0998C17.8503 16.1685 17.79 16.3382 17.7058 16.6089C17.6202 16.8811 17.5782 17.0508 17.5782 17.1181V28.4783H11.7697V16.3536C11.7697 15.5724 11.5664 14.9019 11.1582 14.3408C10.75 13.7798 10.1216 13.5006 9.273 13.5006C8.42439 13.5006 7.74411 13.7475 7.23495 14.2398C6.72578 14.7322 6.33442 15.3521 6.06371 16.0998C6.03005 16.1685 5.97815 16.3284 5.91082 16.5837C5.84209 16.839 5.80843 17.0003 5.80843 17.0676V28.4797H0V12.5496C0 11.6533 0.726589 10.9267 1.62289 10.9267H5.80843V11.0039C6.38493 10.2226 7.12414 9.64612 8.02465 9.27161C8.92375 8.8985 9.8495 8.71054 10.8005 8.71054C11.9549 8.71054 13.0083 8.96583 13.9593 9.47499C14.9103 9.98416 15.7084 10.7149 16.3537 11.666C16.9302 10.5789 17.7549 9.81584 18.8251 9.374C19.8954 8.93356 21.0077 8.71194 22.1621 8.71194C23.1804 8.71194 24.1314 8.88167 25.0151 9.22111C25.8974 9.56055 26.6618 10.0361 27.307 10.6476C27.9523 11.2592 28.453 11.9984 28.8093 12.8638C29.1656 13.7307 29.3437 14.6901 29.3437 15.7421V21.9573C29.3437 22.5352 29.5471 22.9854 29.9553 23.3081C30.3635 23.6307 30.8544 23.792 31.4323 23.792" fill="white"/>
<path d="M44.118 23.5872C44.9329 23.893 45.8152 24.0459 46.7676 24.0459C47.72 24.0459 48.7117 23.9098 49.6458 23.6377C50.58 23.367 51.437 22.8915 52.2183 22.2112V27.8148C51.437 28.1893 50.5534 28.4684 49.5687 28.655C48.5826 28.8416 47.6499 28.9355 46.7662 28.9355C45.2387 28.9355 43.7939 28.6971 42.4362 28.223C41.077 27.7475 39.8889 27.0686 38.8706 26.1849C37.8523 25.3026 37.0443 24.224 36.451 22.9504C35.8563 21.6768 35.5589 20.2418 35.5589 18.6456C35.5589 17.3215 35.8142 16.0563 36.3234 14.85C36.8325 13.6451 37.5367 12.5917 38.4372 11.6912C39.3363 10.7921 40.3813 10.0697 41.5707 9.52549C42.7588 8.98266 44.0156 8.71054 45.3411 8.71054C47.3104 8.71054 49.0174 9.08505 50.4608 9.83127C51.9041 10.5789 53.1862 11.7669 54.3069 13.3968L44.118 23.5858V23.5872ZM47.3272 14.2637C47.0551 13.993 46.6988 13.8134 46.257 13.7293C45.8152 13.6451 45.4252 13.6016 45.0858 13.6016C43.6593 13.6016 42.5722 14.1108 41.826 15.1305C41.0784 16.1489 40.7053 17.3215 40.7053 18.6456C40.7053 19.3259 40.8413 20.0216 41.1134 20.7342L47.3286 14.2637H47.3272Z" fill="white"/>
<path d="M80.6447 27.6633C80.0331 28.1388 79.336 28.4699 78.5561 28.6564C77.7749 28.843 77.0104 28.9369 76.2642 28.9369C75.4156 28.9369 74.6427 28.7588 73.947 28.4025C73.2499 28.0462 72.665 27.5792 72.1894 27.0013C71.7139 26.4248 71.3408 25.7613 71.0687 25.0137C70.7966 24.2675 70.6619 23.503 70.6619 22.7217V16.3536C70.6619 15.5724 70.4586 14.9019 70.0504 14.3408C69.6422 13.7798 69.0138 13.5006 68.1652 13.5006C67.3166 13.5006 66.6363 13.7475 66.1271 14.2398C65.618 14.7322 65.2266 15.3521 64.9559 16.0998C64.9223 16.1685 64.8703 16.3382 64.803 16.6089C64.7343 16.8811 64.7006 17.0508 64.7006 17.1181V28.4783H58.8922V9.11872H64.7006V11.0039C65.2771 10.2226 66.0163 9.64612 66.9168 9.27161C67.8159 8.8985 68.7417 8.71054 69.6927 8.71054C70.6437 8.71054 71.5849 8.89709 72.4181 9.27161C73.2499 9.64612 73.9638 10.1553 74.5585 10.7991C75.1519 11.4443 75.619 12.1919 75.9598 13.0406C76.2992 13.8906 76.469 14.7897 76.469 15.7407V21.9559C76.469 22.5338 76.6724 22.984 77.0805 23.3066C77.4873 23.6293 77.9628 23.7906 78.507 23.7906C79.2883 23.7906 80.0009 23.5199 80.6475 22.9756V27.6619L80.6447 27.6633Z" fill="white"/>
<path d="M97.457 27.6633C96.8791 28.1388 96.2676 28.4698 95.6223 28.6564C94.9771 28.843 94.28 28.9369 93.5338 28.9369C91.2586 28.9369 89.5516 28.2833 88.414 26.976C87.2751 25.6687 86.707 23.9112 86.707 21.7034V14.5709H81.9183V9.12011H86.707V0H92.5154V9.11871H97.457V14.5695H92.5154V20.8871C92.5154 21.6683 92.6936 22.357 93.0498 22.9504C93.4061 23.5451 94.0093 23.8425 94.8579 23.8425C95.3334 23.8425 95.792 23.7583 96.2339 23.5872C96.6743 23.4175 97.0825 23.2141 97.457 22.9756V27.6619V27.6633Z" fill="white"/>
<path d="M101.023 18.7985C101.023 17.4056 101.286 16.0984 101.812 14.8752C102.34 13.6521 103.061 12.5833 103.978 11.6659C104.895 10.7486 105.974 10.0178 107.213 9.47498C108.452 8.93215 109.768 8.66003 111.161 8.66003C112.554 8.66003 113.87 8.93215 115.11 9.47498C116.349 10.0178 117.427 10.7486 118.344 11.6659C119.261 12.5833 119.982 13.6535 120.51 14.8752C121.037 16.0984 121.299 17.4042 121.299 18.7985C121.299 20.1927 121.037 21.507 120.51 22.747C119.984 23.9869 119.261 25.0656 118.344 25.9815C117.427 26.8989 116.349 27.6282 115.11 28.1725C113.87 28.7153 112.554 28.9874 111.161 28.9874C109.768 28.9874 108.452 28.7153 107.213 28.1725C105.974 27.6282 104.895 26.8989 103.978 25.9815C103.061 25.0642 102.34 23.9855 101.812 22.747C101.286 21.507 101.023 20.1913 101.023 18.7985Z" fill="#161243"/>
<path d="M100.917 18.9724C100.912 14.115 104.179 9.94487 108.893 8.93215C112.857 8.08073 116.257 9.24214 118.961 12.2705C120.218 13.6774 120.893 15.3858 121.149 17.2513C121.496 19.7719 121.037 22.1424 119.727 24.3236C118.287 26.7235 116.173 28.2244 113.438 28.8205C110.484 29.4643 107.732 28.972 105.26 27.2018C102.967 25.5593 101.564 23.3277 101.046 20.5476C101.009 20.3442 100.982 20.1394 100.962 19.9332C100.93 19.5882 100.898 19.2417 100.915 18.971L100.917 18.9724ZM119.546 14.3843C119.562 14.4825 119.576 14.5807 119.594 14.6775C119.612 14.7756 119.64 14.8654 119.783 14.8135C119.705 14.6676 119.671 14.5021 119.543 14.3885C119.543 14.3689 119.55 14.345 119.542 14.331C119.146 13.5946 118.661 12.9241 118.078 12.3084C117.916 12.5524 117.699 12.6478 117.421 12.6296C117.303 12.6212 117.183 12.6436 117.063 12.6576C116.87 12.6801 116.758 12.7965 116.696 12.9774C116.644 13.1275 116.669 13.2818 116.659 13.4333C116.654 13.5203 116.672 13.6128 116.598 13.7096C116.48 13.502 116.309 13.4165 116.101 13.3842C115.523 13.2944 115.585 13.3043 115.31 13.8078C115.17 14.0659 115.321 14.627 115.551 14.8009C115.567 14.8121 115.586 14.8261 115.603 14.8261C115.917 14.8233 116.247 14.9089 116.509 14.6368C116.62 14.5232 116.741 14.418 116.889 14.3478C117.173 14.2146 117.46 14.0869 117.667 13.8345C117.702 13.791 117.758 13.7489 117.794 13.8218C117.918 14.0701 118.125 14.2889 118.124 14.5821C118.124 14.8009 118.239 14.9412 118.369 15.0856C118.442 15.167 118.532 15.181 118.623 15.1403C118.775 15.0716 118.922 14.9945 119.069 14.9173C119.204 14.8472 119.194 14.7672 119.09 14.6704C118.94 14.5288 118.799 14.3773 118.647 14.237C118.491 14.0911 118.598 13.9972 118.699 13.8906C118.804 13.7798 118.895 13.7489 119.015 13.8779C119.18 14.0589 119.341 14.244 119.546 14.3843ZM110.346 13.0602C110.06 13.042 109.965 12.8835 109.882 12.6969C109.784 12.4781 109.674 12.2635 109.516 12.0797C109.367 11.9072 109.253 11.8946 109.064 12.0152C108.894 12.1246 108.711 12.1905 108.51 12.2284C108.169 12.2915 107.831 12.2326 107.492 12.2438C107.14 12.2551 106.919 12.4206 106.814 12.7558C106.745 12.9732 106.701 12.9774 106.543 12.8077C106.464 12.7221 106.403 12.6183 106.255 12.6268C106.009 12.6408 105.967 12.5917 105.971 12.3392C105.971 12.2719 105.987 12.2046 105.975 12.14C105.943 11.9479 106.044 11.8553 106.208 11.802C106.435 11.7291 106.663 11.6547 106.891 11.5804C107.033 11.5341 107.165 11.5579 107.249 11.6814C107.379 11.8763 107.535 11.8777 107.734 11.7978C108.187 11.6182 108.65 11.4668 109.151 11.5018C109.241 11.5088 109.28 11.4794 109.232 11.3868C109.126 11.1792 109.033 10.9646 108.911 10.7668C108.706 10.4386 108.183 10.2829 107.828 10.4302C107.793 10.4456 107.758 10.4723 107.733 10.5017C107.559 10.7135 107.325 10.8412 107.088 10.9646C106.722 11.1554 106.698 11.1596 106.426 10.8552C106.283 10.6939 106.176 10.6827 105.992 10.8047C103.644 12.3673 102.199 14.5218 101.708 17.306C101.668 17.5403 101.71 17.6273 101.927 17.724C101.993 17.7535 102.066 17.7816 102.138 17.783C102.514 17.7942 102.814 17.9667 103.079 18.2136C103.322 18.4394 103.602 18.553 103.937 18.5053C104.034 18.4913 104.136 18.4983 104.197 18.5769C104.414 18.8602 104.702 18.9219 105.036 18.8714C105.205 18.8462 105.263 18.9458 105.254 19.0987C105.249 19.2123 105.197 19.3006 105.109 19.3722C105.002 19.4563 104.911 19.5587 104.864 19.685C104.476 20.758 104.367 20.7159 105.051 21.6277C105.34 22.0106 105.686 22.2504 106.187 22.1957C106.336 22.1803 106.375 22.2673 106.354 22.3949C106.334 22.5071 106.333 22.6179 106.347 22.733C106.391 23.0878 106.564 23.388 106.734 23.6896C106.961 24.0893 107.145 24.4989 107.082 24.9772C107.072 25.0501 107.085 25.1231 107.12 25.1904C107.413 25.7459 107.608 26.342 107.81 26.9339C107.863 27.0924 107.96 27.2201 108.12 27.2804C108.363 27.3716 108.611 27.3772 108.884 27.3281C108.764 27.1836 108.653 27.0602 108.553 26.9283C108.225 26.4977 108.152 26.039 108.413 25.5453C108.444 25.4864 108.475 25.4247 108.486 25.3601C108.516 25.189 108.61 25.0964 108.776 25.0473C109.126 24.9464 109.302 24.6981 109.318 24.3404C109.324 24.2212 109.298 24.1019 109.291 23.9827C109.273 23.6755 109.305 23.6278 109.589 23.5269C109.962 23.3936 110.07 23.2379 110.025 22.8536C110.001 22.6418 110.07 22.5268 110.28 22.451C110.889 22.2308 111.238 21.3485 110.984 20.751C110.869 20.4817 110.673 20.3091 110.423 20.1801C110.174 20.0511 109.925 19.922 109.747 19.6934C109.719 19.6569 109.68 19.6204 109.629 19.6275C109.295 19.6822 109.18 19.4563 109.096 19.2053C109.021 18.9808 108.88 18.8279 108.663 18.7396C108.527 18.6849 108.398 18.6119 108.259 18.5698C107.879 18.452 107.51 18.4282 107.203 18.7508C107.127 18.8307 107.061 18.8125 107.013 18.7213C106.942 18.5853 106.877 18.4464 106.804 18.3118C106.768 18.243 106.738 18.1575 106.644 18.1476C106.368 18.1168 106.057 18.0957 105.862 18.2907C105.601 18.5516 105.309 18.5109 105.008 18.5123C104.915 18.5123 104.864 18.4689 104.88 18.3777C104.914 18.1939 104.821 18.0733 104.696 17.9611C104.573 17.8517 104.47 17.7325 104.517 17.5459C104.535 17.4744 104.49 17.4407 104.421 17.4211C104.237 17.3678 104.106 17.4183 103.986 17.5712C103.838 17.7619 103.745 17.7437 103.639 17.5277C103.603 17.4561 103.575 17.3818 103.542 17.3089C103.407 17.0087 103.445 16.8993 103.749 16.7576C103.832 16.7183 103.923 16.6903 104.014 16.6734C104.524 16.5795 104.995 16.6945 105.434 16.9512C105.559 17.0241 105.642 17.0143 105.752 16.9259C106.135 16.6173 106.393 16.2386 106.496 15.7519C106.552 15.4854 106.588 15.2105 106.723 14.9678C107.106 14.2805 107.448 14.021 108.12 14.101C108.546 14.1529 108.61 14.0603 108.566 13.6297C108.541 13.3814 108.569 13.3604 108.81 13.4417C109.05 13.5217 109.29 13.6002 109.528 13.6858C109.612 13.7152 109.681 13.7152 109.747 13.6493C109.931 13.467 110.117 13.286 110.346 13.0616V13.0602ZM118.532 24.9141C118.574 24.865 118.618 24.8173 118.657 24.7668C119.985 23.0542 120.66 21.1143 120.688 18.9486C120.699 18.1042 120.597 17.2724 120.381 16.456C120.362 16.3873 120.381 16.2891 120.276 16.2611C120.086 16.2106 119.928 16.0955 119.754 16.0114C119.678 15.9749 119.601 15.93 119.508 15.9791C119.186 16.1489 118.829 16.2653 118.591 16.5668C118.539 16.6314 118.476 16.6636 118.399 16.6215C118.183 16.5037 117.909 16.4546 117.755 16.2695C117.481 15.9399 117.141 15.9174 116.766 15.9455C116.693 15.9511 116.619 15.9455 116.546 15.9427C116.34 15.9342 116.153 15.9861 115.976 16.0955C115.701 16.2639 115.4 16.3298 115.077 16.3144C114.706 16.2975 114.467 16.5206 114.452 16.8993C114.443 17.1055 114.442 17.3131 114.456 17.5193C114.467 17.689 114.407 17.8138 114.285 17.9246C114.196 18.0046 114.091 18.0831 114.09 18.215C114.083 18.741 114.09 19.2614 114.229 19.7817C114.48 20.7131 115.561 20.9249 116.206 20.57C116.821 20.232 117.393 20.3148 117.97 20.6374C118.089 20.7047 118.139 20.7973 118.129 20.9319C118.1 21.3008 118.156 21.6487 118.378 21.9587C118.467 22.0849 118.448 22.214 118.348 22.3248C118.242 22.444 118.131 22.5604 118.014 22.6698C117.744 22.9223 117.761 22.9125 117.913 23.2589C118.148 23.792 118.595 24.2506 118.531 24.9155L118.532 24.9141ZM117.034 11.3588C117.083 11.6786 117.474 12.0194 117.859 12.0825C117.594 11.823 117.33 11.5832 117.034 11.3588Z" fill="#F9F9FA"/>
</svg>
