<svg width="110" height="25" viewBox="0 0 110 25" fill="none" xmlns="http://www.w3.org/2000/svg">
<path d="M110 23.4101C110 23.8452 109.843 24.2189 109.531 24.5311C109.219 24.8433 108.845 25 108.41 25C107.975 25 107.581 24.8433 107.269 24.5311C106.956 24.2189 106.8 23.8452 106.8 23.4101C106.8 22.9749 106.955 22.582 107.269 22.2686C107.582 21.9551 107.962 21.7997 108.41 21.7997C108.858 21.7997 109.218 21.9564 109.531 22.2686C109.843 22.5808 110 22.9617 110 23.4101Z" fill="#161243"/>
<path d="M27.0564 24.6263C26.385 24.7866 25.7136 24.8674 25.0422 24.8674C24.3117 24.8674 23.656 24.7143 23.0726 24.4081C22.4879 24.102 21.9853 23.7006 21.5622 23.204C21.1391 22.7085 20.8173 22.1384 20.5991 21.4959C20.3797 20.8546 20.2712 20.1977 20.2712 19.5263V14.0538C20.2712 13.3824 20.088 12.8062 19.724 12.324C19.3587 11.8419 18.8115 11.602 18.0822 11.602C17.3529 11.602 16.8129 11.8141 16.3754 12.2372C15.9378 12.6603 15.6015 13.1931 15.3689 13.8356C15.3399 13.8946 15.2881 14.0405 15.2158 14.2731C15.1422 14.507 15.1061 14.6528 15.1061 14.7107V24.4732H10.1145V14.0538C10.1145 13.3824 9.93973 12.8062 9.58896 12.324C9.23819 11.8419 8.69817 11.602 7.9689 11.602C7.23963 11.602 6.65501 11.8141 6.21745 12.2372C5.77989 12.6603 5.44359 13.1931 5.21094 13.8356C5.18201 13.8946 5.13741 14.0321 5.07956 14.2514C5.02049 14.4708 4.99156 14.6094 4.99156 14.6673V24.4744H0V10.7847C0 10.0145 0.624397 9.39007 1.39465 9.39007H4.99156V9.45636C5.48698 8.78496 6.12223 8.28954 6.89609 7.96769C7.66876 7.64706 8.46432 7.48553 9.28158 7.48553C10.2736 7.48553 11.1789 7.70492 11.9961 8.14248C12.8134 8.58004 13.4993 9.20805 14.0538 10.0253C14.5492 9.09113 15.258 8.43539 16.1777 8.05569C17.0974 7.67719 18.0533 7.48674 19.0453 7.48674C19.9204 7.48674 20.7377 7.63259 21.4971 7.9243C22.2553 8.21601 22.9122 8.62464 23.4667 9.15019C24.0212 9.67575 24.4515 10.311 24.7577 11.0547C25.0639 11.7997 25.217 12.6242 25.217 13.5282V18.8693C25.217 19.366 25.3918 19.7529 25.7425 20.0301C26.0933 20.3074 26.5152 20.446 27.0118 20.446" fill="#161243"/>
<path d="M37.9135 20.27C38.6138 20.5328 39.372 20.6642 40.1905 20.6642C41.0089 20.6642 41.8611 20.5473 42.6639 20.3134C43.4667 20.0808 44.2032 19.6721 44.8746 19.0875V23.9031C44.2032 24.2249 43.4438 24.4648 42.5976 24.6251C41.7502 24.7854 40.9487 24.8662 40.1893 24.8662C38.8766 24.8662 37.635 24.6613 36.4682 24.2539C35.3002 23.8452 34.2792 23.2618 33.4041 22.5024C32.5289 21.7442 31.8346 20.8173 31.3247 19.7228C30.8137 18.6283 30.5581 17.3951 30.5581 16.0234C30.5581 14.8855 30.7775 13.7982 31.215 12.7616C31.6526 11.7261 32.2577 10.8209 33.0316 10.047C33.8042 9.27435 34.7023 8.65357 35.7245 8.18587C36.7454 7.71938 37.8255 7.48553 38.9646 7.48553C40.6569 7.48553 42.1239 7.80738 43.3643 8.44865C44.6046 9.09113 45.7064 10.1121 46.6695 11.5128L37.9135 20.2688V20.27ZM40.6714 12.2577C40.4376 12.0251 40.1314 11.8708 39.7517 11.7985C39.372 11.7261 39.0369 11.6888 38.7452 11.6888C37.5193 11.6888 36.5851 12.1263 35.9438 13.0027C35.3014 13.8778 34.9807 14.8855 34.9807 16.0234C34.9807 16.608 35.0976 17.2059 35.3315 17.8182L40.6726 12.2577H40.6714Z" fill="#161243"/>
<path d="M69.3045 23.7729C68.7789 24.1815 68.1799 24.466 67.5096 24.6263C66.8382 24.7866 66.1813 24.8674 65.54 24.8674C64.8108 24.8674 64.1466 24.7143 63.5487 24.4081C62.9496 24.102 62.447 23.7006 62.0383 23.204C61.6297 22.7085 61.3091 22.1384 61.0752 21.4959C60.8414 20.8546 60.7257 20.1977 60.7257 19.5263V14.0538C60.7257 13.3824 60.5509 12.8062 60.2001 12.324C59.8493 11.8419 59.3093 11.602 58.58 11.602C57.8508 11.602 57.2662 11.8141 56.8286 12.2372C56.391 12.6603 56.0547 13.1931 55.8221 13.8356C55.7932 13.8946 55.7486 14.0405 55.6907 14.2731C55.6316 14.507 55.6027 14.6528 55.6027 14.7107V24.4732H50.6111V7.83631H55.6027V9.45636C56.0981 8.78496 56.7334 8.28954 57.5072 7.96769C58.2799 7.64706 59.0755 7.48553 59.8927 7.48553C60.71 7.48553 61.5188 7.64585 62.2348 7.96769C62.9496 8.28954 63.5632 8.7271 64.0743 9.28038C64.5841 9.83486 64.9855 10.4773 65.2785 11.2066C65.5702 11.9371 65.716 12.7097 65.716 13.527V18.8681C65.716 19.3648 65.8908 19.7517 66.2416 20.0289C66.5911 20.3062 66.9998 20.4448 67.4675 20.4448C68.1389 20.4448 68.7512 20.2121 69.3069 19.7445V23.7717L69.3045 23.7729Z" fill="#161243"/>
<path d="M83.7512 23.7729C83.2546 24.1815 82.729 24.466 82.1745 24.6263C81.62 24.7866 81.021 24.8674 80.3797 24.8674C78.4245 24.8674 76.9576 24.3057 75.98 23.1823C75.0012 22.0588 74.513 20.5485 74.513 18.6512V12.5217H70.3978V7.83751H74.513V0H79.5046V7.83631H83.7512V12.5205H79.5046V17.9496C79.5046 18.621 79.6576 19.2129 79.9638 19.7228C80.27 20.2338 80.7883 20.4894 81.5176 20.4894C81.9262 20.4894 82.3204 20.4171 82.7001 20.27C83.0786 20.1242 83.4293 19.9494 83.7512 19.7445V23.7717V23.7729Z" fill="#161243"/>
<path d="M86.8153 16.1548C86.8153 14.9578 87.0419 13.8344 87.4939 12.7833C87.9472 11.7322 88.5668 10.8136 89.3551 10.0253C90.1434 9.23698 91.0704 8.60897 92.1347 8.14248C93.2003 7.67599 94.331 7.44214 95.5279 7.44214C96.7249 7.44214 97.8556 7.67599 98.9211 8.14248C99.9867 8.60897 100.912 9.23698 101.701 10.0253C102.489 10.8136 103.109 11.7334 103.562 12.7833C104.015 13.8344 104.241 14.9566 104.241 16.1548C104.241 17.3529 104.015 18.4824 103.562 19.548C103.11 20.6135 102.489 21.5405 101.701 22.3276C100.912 23.116 99.9867 23.7428 98.9211 24.2105C97.8556 24.677 96.7249 24.9108 95.5279 24.9108C94.331 24.9108 93.2003 24.677 92.1347 24.2105C91.0704 23.7428 90.1434 23.116 89.3551 22.3276C88.5668 21.5393 87.9472 20.6123 87.4939 19.548C87.0419 18.4824 86.8153 17.3517 86.8153 16.1548Z" fill="white"/>
<path d="M86.8467 16.303C86.8419 12.1287 89.6492 8.54509 93.7006 7.67479C97.107 6.94311 100.029 7.94118 102.353 10.5436C103.433 11.7527 104.013 13.2208 104.233 14.824C104.531 16.9901 104.137 19.0272 103.011 20.9016C101.773 22.9641 99.9566 24.2539 97.6061 24.7662C95.0675 25.3194 92.7025 24.8963 90.5786 23.3751C88.6078 21.9636 87.4024 20.0458 86.9576 17.6567C86.925 17.4819 86.9021 17.3059 86.8852 17.1287C86.8575 16.8322 86.8298 16.5345 86.8443 16.3018L86.8467 16.303ZM102.856 12.3602C102.869 12.4446 102.881 12.5289 102.897 12.6121C102.912 12.6965 102.936 12.7736 103.059 12.729C102.992 12.6037 102.963 12.4614 102.853 12.3638C102.853 12.3469 102.859 12.3264 102.852 12.3144C102.512 11.6815 102.095 11.1054 101.594 10.5762C101.455 10.7859 101.268 10.8679 101.029 10.8522C100.928 10.845 100.824 10.8643 100.722 10.8763C100.556 10.8956 100.459 10.9957 100.406 11.1512C100.362 11.2801 100.383 11.4127 100.375 11.5429C100.37 11.6177 100.386 11.6972 100.322 11.7804C100.221 11.602 100.074 11.5285 99.8951 11.5007C99.3985 11.4236 99.4515 11.432 99.2153 11.8648C99.0947 12.0866 99.2249 12.5687 99.4226 12.7182C99.4359 12.7278 99.4527 12.7399 99.4672 12.7399C99.7372 12.7375 100.02 12.811 100.246 12.5772C100.341 12.4795 100.445 12.3891 100.573 12.3288C100.816 12.2143 101.063 12.1046 101.24 11.8877C101.27 11.8503 101.319 11.8141 101.35 11.8768C101.456 12.0902 101.635 12.2782 101.633 12.5301C101.633 12.7182 101.732 12.8387 101.844 12.9629C101.907 13.0328 101.984 13.0448 102.062 13.0099C102.193 12.9508 102.319 12.8845 102.446 12.8182C102.561 12.758 102.553 12.6893 102.464 12.6061C102.335 12.4843 102.213 12.3542 102.083 12.2336C101.949 12.1083 102.041 12.0275 102.128 11.9359C102.218 11.8407 102.296 11.8141 102.399 11.925C102.541 12.0805 102.68 12.2396 102.856 12.3602ZM94.9494 11.2223C94.7035 11.2066 94.6215 11.0704 94.5504 10.9101C94.466 10.722 94.372 10.5376 94.2358 10.3797C94.108 10.2314 94.0104 10.2206 93.8476 10.3243C93.7018 10.4183 93.5439 10.4749 93.3715 10.5075C93.0786 10.5617 92.7881 10.5111 92.4964 10.5207C92.1938 10.5304 92.0046 10.6726 91.9142 10.9607C91.8551 11.1475 91.8165 11.1512 91.6815 11.0053C91.6128 10.9318 91.561 10.8426 91.4332 10.8498C91.2223 10.8619 91.1861 10.8197 91.1897 10.6027C91.1897 10.5448 91.203 10.487 91.1933 10.4315C91.1656 10.2664 91.2524 10.1868 91.3934 10.141C91.5887 10.0784 91.784 10.0145 91.9805 9.95059C92.1022 9.91081 92.2155 9.9313 92.2879 10.0374C92.4 10.2049 92.5338 10.2061 92.7049 10.1374C93.0943 9.98313 93.492 9.85295 93.9224 9.88308C93.9995 9.88911 94.0333 9.8638 93.9923 9.78424C93.9007 9.60584 93.8211 9.42141 93.7162 9.25145C93.5403 8.96939 93.0906 8.83559 92.7857 8.96216C92.7555 8.97542 92.7254 8.99832 92.7037 9.02363C92.5542 9.20565 92.3529 9.31534 92.1492 9.42141C91.8346 9.58535 91.8141 9.58897 91.5803 9.32739C91.4573 9.18877 91.3657 9.17913 91.2078 9.284C89.19 10.6268 87.9484 12.4783 87.5265 14.871C87.4916 15.0723 87.5277 15.1471 87.7146 15.2302C87.7712 15.2556 87.8339 15.2797 87.8954 15.2809C88.2184 15.2905 88.4764 15.4388 88.7042 15.6509C88.9127 15.845 89.1538 15.9426 89.4419 15.9016C89.5251 15.8896 89.6131 15.8956 89.6649 15.9631C89.8517 16.2066 90.0988 16.2596 90.3857 16.2163C90.5316 16.1946 90.581 16.2801 90.5738 16.4115C90.569 16.5092 90.5243 16.5851 90.4484 16.6466C90.3568 16.7189 90.2784 16.8069 90.2387 16.9154C89.9048 17.8375 89.8108 17.8014 90.399 18.5849C90.6473 18.9139 90.945 19.1201 91.3754 19.0731C91.5031 19.0598 91.5369 19.1345 91.5188 19.2442C91.5019 19.3407 91.5007 19.4359 91.5128 19.5347C91.5501 19.8397 91.6996 20.0976 91.8455 20.3568C92.0407 20.7003 92.1987 21.0523 92.1444 21.4634C92.136 21.526 92.1468 21.5887 92.177 21.6466C92.4289 22.1239 92.5964 22.6362 92.77 23.1449C92.8158 23.2811 92.899 23.3908 93.0364 23.4426C93.2449 23.521 93.4583 23.5258 93.6934 23.4836C93.5897 23.3595 93.4945 23.2534 93.4089 23.1401C93.1268 22.77 93.0641 22.3758 93.2883 21.9515C93.3149 21.9009 93.3414 21.8479 93.351 21.7924C93.3763 21.6454 93.4571 21.5658 93.6005 21.5236C93.9007 21.4368 94.0526 21.2235 94.0658 20.9161C94.0706 20.8137 94.0489 20.7112 94.0429 20.6087C94.0272 20.3448 94.055 20.3038 94.2985 20.217C94.6191 20.1025 94.7119 19.9687 94.6733 19.6384C94.6528 19.4564 94.7119 19.3575 94.8927 19.2924C95.4159 19.1032 95.716 18.345 95.4978 17.8315C95.399 17.6001 95.2302 17.4518 95.0157 17.3409C94.8011 17.23 94.5878 17.1191 94.4347 16.9226C94.4106 16.8913 94.3768 16.8599 94.3334 16.866C94.0465 16.913 93.9477 16.7189 93.8754 16.5031C93.8103 16.3103 93.6897 16.1789 93.5029 16.1029C93.386 16.0559 93.2751 15.9933 93.1557 15.9571C92.8291 15.8558 92.5121 15.8353 92.2481 16.1126C92.183 16.1813 92.1263 16.1656 92.0853 16.0873C92.0239 15.9704 91.9684 15.851 91.9057 15.7353C91.8744 15.6762 91.8491 15.6027 91.7683 15.5943C91.5309 15.5678 91.2633 15.5497 91.0957 15.7172C90.8715 15.9414 90.6208 15.9065 90.3616 15.9077C90.2821 15.9077 90.2387 15.8703 90.2519 15.792C90.2809 15.634 90.2013 15.5304 90.094 15.434C89.9879 15.3399 89.9 15.2375 89.9397 15.0772C89.9554 15.0157 89.9168 14.9867 89.8578 14.9699C89.6999 14.9241 89.5865 14.9675 89.4841 15.0989C89.3563 15.2628 89.2768 15.2471 89.1852 15.0615C89.155 15 89.1309 14.9361 89.102 14.8734C88.9863 14.6155 89.0188 14.5215 89.2804 14.3997C89.3515 14.366 89.4298 14.3419 89.5082 14.3274C89.9458 14.2466 90.3508 14.3455 90.7281 14.5661C90.8353 14.6287 90.9065 14.6203 91.0017 14.5444C91.3308 14.2792 91.5526 13.9537 91.6406 13.5354C91.6888 13.3064 91.7201 13.0702 91.8358 12.8616C92.1649 12.271 92.459 12.048 93.0364 12.1167C93.4028 12.1613 93.4571 12.0817 93.4197 11.7117C93.398 11.4983 93.4221 11.4802 93.6295 11.5502C93.8356 11.6189 94.0417 11.6864 94.2466 11.7599C94.319 11.7852 94.378 11.7852 94.4347 11.7286C94.5926 11.5718 94.7529 11.4164 94.9494 11.2235V11.2223ZM101.984 21.4091C102.02 21.3669 102.058 21.3259 102.091 21.2826C103.233 19.8108 103.813 18.1437 103.837 16.2826C103.846 15.5569 103.758 14.8421 103.573 14.1406C103.557 14.0815 103.573 13.9971 103.482 13.973C103.32 13.9296 103.183 13.8308 103.034 13.7584C102.969 13.7271 102.903 13.6885 102.823 13.7307C102.546 13.8766 102.24 13.9766 102.035 14.2358C101.99 14.2912 101.936 14.319 101.87 14.2828C101.684 14.1815 101.449 14.1394 101.316 13.9802C101.081 13.697 100.788 13.6777 100.466 13.7018C100.404 13.7066 100.34 13.7018 100.277 13.6994C100.1 13.6921 99.9397 13.7367 99.7879 13.8308C99.5516 13.9754 99.2924 14.0321 99.0152 14.0188C98.6958 14.0043 98.4908 14.196 98.4776 14.5215C98.4703 14.6987 98.4691 14.8771 98.4812 15.0542C98.4908 15.2001 98.439 15.3074 98.3341 15.4026C98.2582 15.4713 98.1678 15.5388 98.1666 15.6521C98.1606 16.1042 98.1666 16.5514 98.2859 16.9986C98.5017 17.7989 99.4311 17.981 99.9855 17.676C100.514 17.3855 101.005 17.4566 101.501 17.7339C101.603 17.7917 101.647 17.8713 101.638 17.987C101.613 18.304 101.661 18.6029 101.851 18.8693C101.929 18.9778 101.912 19.0887 101.826 19.184C101.735 19.2864 101.639 19.3865 101.539 19.4805C101.307 19.6975 101.321 19.689 101.453 19.9867C101.654 20.4448 102.038 20.839 101.983 21.4103L101.984 21.4091ZM100.697 9.76013C100.739 10.035 101.075 10.3279 101.405 10.3821C101.178 10.1591 100.951 9.953 100.697 9.76013Z" fill="#161243"/>
</svg>
